<mxfile host="app.diagrams.net" modified="2023-06-20T10:41:03.262Z" agent="Mozilla/5.0 (Windows NT 10.0; Win64; x64) AppleWebKit/537.36 (KHTML, like Gecko) Chrome/114.0.0.0 Safari/537.36" etag="kmz5bo_J9m2Y2vKe-mNL" version="21.3.8" type="device">
  <diagram name="Page-1" id="lE8fJel_tyzk4Z33iwaf">
    <mxGraphModel dx="2465" dy="865" grid="1" gridSize="10" guides="1" tooltips="1" connect="1" arrows="1" fold="1" page="1" pageScale="1" pageWidth="850" pageHeight="1100" math="0" shadow="0">
      <root>
        <mxCell id="0" />
        <mxCell id="1" parent="0" />
        <mxCell id="QgOMkBpa1uUgS-yTLPcE-5" value="" style="endArrow=none;html=1;rounded=0;exitX=0.5;exitY=0;exitDx=0;exitDy=0;" parent="1" source="QgOMkBpa1uUgS-yTLPcE-28" edge="1">
          <mxGeometry width="50" height="50" relative="1" as="geometry">
            <mxPoint x="220" y="280" as="sourcePoint" />
            <mxPoint x="220" y="190" as="targetPoint" />
          </mxGeometry>
        </mxCell>
        <mxCell id="QgOMkBpa1uUgS-yTLPcE-15" value="" style="endArrow=none;html=1;rounded=0;entryX=0;entryY=0.5;entryDx=0;entryDy=0;exitX=1;exitY=0.5;exitDx=0;exitDy=0;" parent="1" target="UxfmCiFL-Ms4z8eQPeO1-3" edge="1">
          <mxGeometry width="50" height="50" relative="1" as="geometry">
            <mxPoint x="100" y="160" as="sourcePoint" />
            <mxPoint x="160" y="160" as="targetPoint" />
          </mxGeometry>
        </mxCell>
        <mxCell id="QgOMkBpa1uUgS-yTLPcE-17" value="" style="endArrow=none;html=1;rounded=0;entryX=0.5;entryY=1;entryDx=0;entryDy=0;exitX=0.5;exitY=0;exitDx=0;exitDy=0;" parent="1" edge="1">
          <mxGeometry width="50" height="50" relative="1" as="geometry">
            <mxPoint x="220" y="130" as="sourcePoint" />
            <mxPoint x="220" y="80" as="targetPoint" />
          </mxGeometry>
        </mxCell>
        <mxCell id="QgOMkBpa1uUgS-yTLPcE-18" value="" style="endArrow=none;html=1;rounded=0;exitX=1;exitY=0.5;exitDx=0;exitDy=0;" parent="1" target="QgOMkBpa1uUgS-yTLPcE-19" edge="1">
          <mxGeometry width="50" height="50" relative="1" as="geometry">
            <mxPoint x="280" y="160" as="sourcePoint" />
            <mxPoint x="360" y="160" as="targetPoint" />
          </mxGeometry>
        </mxCell>
        <mxCell id="QgOMkBpa1uUgS-yTLPcE-19" value="produce" style="rhombus;whiteSpace=wrap;html=1;" parent="1" vertex="1">
          <mxGeometry x="410" y="120" width="80" height="80" as="geometry" />
        </mxCell>
        <mxCell id="QgOMkBpa1uUgS-yTLPcE-20" value="" style="endArrow=none;html=1;rounded=0;entryX=1;entryY=0.5;entryDx=0;entryDy=0;exitX=0;exitY=0.5;exitDx=0;exitDy=0;" parent="1" source="QgOMkBpa1uUgS-yTLPcE-21" target="QgOMkBpa1uUgS-yTLPcE-19" edge="1">
          <mxGeometry width="50" height="50" relative="1" as="geometry">
            <mxPoint x="630" y="160" as="sourcePoint" />
            <mxPoint x="450" y="300" as="targetPoint" />
          </mxGeometry>
        </mxCell>
        <mxCell id="QgOMkBpa1uUgS-yTLPcE-21" value="producer" style="rounded=0;whiteSpace=wrap;html=1;" parent="1" vertex="1">
          <mxGeometry x="640" y="130" width="120" height="60" as="geometry" />
        </mxCell>
        <mxCell id="QgOMkBpa1uUgS-yTLPcE-23" value="" style="endArrow=none;html=1;rounded=0;entryX=1;entryY=0.5;entryDx=0;entryDy=0;exitX=0.02;exitY=0.612;exitDx=0;exitDy=0;exitPerimeter=0;" parent="1" source="QgOMkBpa1uUgS-yTLPcE-24" target="QgOMkBpa1uUgS-yTLPcE-21" edge="1">
          <mxGeometry width="50" height="50" relative="1" as="geometry">
            <mxPoint x="820" y="160" as="sourcePoint" />
            <mxPoint x="540" y="300" as="targetPoint" />
            <Array as="points">
              <mxPoint x="840" y="160" />
            </Array>
          </mxGeometry>
        </mxCell>
        <mxCell id="QgOMkBpa1uUgS-yTLPcE-24" value="company_name" style="ellipse;whiteSpace=wrap;html=1;" parent="1" vertex="1">
          <mxGeometry x="840" y="110" width="120" height="80" as="geometry" />
        </mxCell>
        <mxCell id="QgOMkBpa1uUgS-yTLPcE-27" value="" style="endArrow=none;html=1;rounded=0;entryX=0.5;entryY=0;entryDx=0;entryDy=0;exitX=0.5;exitY=1;exitDx=0;exitDy=0;" parent="1" target="QgOMkBpa1uUgS-yTLPcE-21" edge="1">
          <mxGeometry width="50" height="50" relative="1" as="geometry">
            <mxPoint x="700" y="80" as="sourcePoint" />
            <mxPoint x="540" y="300" as="targetPoint" />
          </mxGeometry>
        </mxCell>
        <mxCell id="QgOMkBpa1uUgS-yTLPcE-28" value="broadcast" style="rhombus;whiteSpace=wrap;html=1;" parent="1" vertex="1">
          <mxGeometry x="180" y="280" width="80" height="80" as="geometry" />
        </mxCell>
        <mxCell id="QgOMkBpa1uUgS-yTLPcE-30" value="" style="endArrow=none;html=1;rounded=0;entryX=0.5;entryY=1;entryDx=0;entryDy=0;exitX=0.5;exitY=0;exitDx=0;exitDy=0;" parent="1" source="UxfmCiFL-Ms4z8eQPeO1-2" target="QgOMkBpa1uUgS-yTLPcE-28" edge="1">
          <mxGeometry width="50" height="50" relative="1" as="geometry">
            <mxPoint x="220" y="440" as="sourcePoint" />
            <mxPoint x="540" y="300" as="targetPoint" />
          </mxGeometry>
        </mxCell>
        <mxCell id="QgOMkBpa1uUgS-yTLPcE-32" value="head_office" style="ellipse;whiteSpace=wrap;html=1;" parent="1" vertex="1">
          <mxGeometry x="-30" y="440" width="120" height="80" as="geometry" />
        </mxCell>
        <mxCell id="QgOMkBpa1uUgS-yTLPcE-37" value="" style="endArrow=none;html=1;rounded=0;exitX=0.25;exitY=1;exitDx=0;exitDy=0;entryX=0.5;entryY=0;entryDx=0;entryDy=0;" parent="1" edge="1">
          <mxGeometry width="50" height="50" relative="1" as="geometry">
            <mxPoint x="190" y="500" as="sourcePoint" />
            <mxPoint x="105" y="570" as="targetPoint" />
          </mxGeometry>
        </mxCell>
        <mxCell id="QgOMkBpa1uUgS-yTLPcE-38" value="country" style="ellipse;whiteSpace=wrap;html=1;" parent="1" vertex="1">
          <mxGeometry x="650" y="280" width="120" height="80" as="geometry" />
        </mxCell>
        <mxCell id="QgOMkBpa1uUgS-yTLPcE-40" value="" style="endArrow=none;html=1;rounded=0;entryX=0.5;entryY=1;entryDx=0;entryDy=0;exitX=0.443;exitY=-0.022;exitDx=0;exitDy=0;exitPerimeter=0;" parent="1" source="QgOMkBpa1uUgS-yTLPcE-38" target="QgOMkBpa1uUgS-yTLPcE-21" edge="1">
          <mxGeometry width="50" height="50" relative="1" as="geometry">
            <mxPoint x="490" y="300" as="sourcePoint" />
            <mxPoint x="540" y="250" as="targetPoint" />
          </mxGeometry>
        </mxCell>
        <mxCell id="QgOMkBpa1uUgS-yTLPcE-41" value="name" style="ellipse;whiteSpace=wrap;html=1;" parent="1" vertex="1">
          <mxGeometry x="200" y="580" width="120" height="80" as="geometry" />
        </mxCell>
        <mxCell id="QgOMkBpa1uUgS-yTLPcE-42" value="start_year" style="ellipse;whiteSpace=wrap;html=1;" parent="1" vertex="1">
          <mxGeometry x="350" y="580" width="120" height="80" as="geometry" />
        </mxCell>
        <mxCell id="QgOMkBpa1uUgS-yTLPcE-44" value="" style="endArrow=none;html=1;rounded=0;entryX=0.5;entryY=0;entryDx=0;entryDy=0;exitX=0.5;exitY=1;exitDx=0;exitDy=0;" parent="1" target="QgOMkBpa1uUgS-yTLPcE-41" edge="1">
          <mxGeometry width="50" height="50" relative="1" as="geometry">
            <mxPoint x="220" y="500" as="sourcePoint" />
            <mxPoint x="540" y="560" as="targetPoint" />
          </mxGeometry>
        </mxCell>
        <mxCell id="QgOMkBpa1uUgS-yTLPcE-45" value="" style="endArrow=none;html=1;rounded=0;entryX=0.75;entryY=1;entryDx=0;entryDy=0;exitX=0.5;exitY=0;exitDx=0;exitDy=0;" parent="1" source="QgOMkBpa1uUgS-yTLPcE-42" edge="1">
          <mxGeometry width="50" height="50" relative="1" as="geometry">
            <mxPoint x="490" y="610" as="sourcePoint" />
            <mxPoint x="250" y="500" as="targetPoint" />
          </mxGeometry>
        </mxCell>
        <mxCell id="UxfmCiFL-Ms4z8eQPeO1-2" value="tv_channel" style="rounded=0;whiteSpace=wrap;html=1;" vertex="1" parent="1">
          <mxGeometry x="160" y="450" width="120" height="60" as="geometry" />
        </mxCell>
        <mxCell id="UxfmCiFL-Ms4z8eQPeO1-3" value="reality_show" style="rounded=0;whiteSpace=wrap;html=1;" vertex="1" parent="1">
          <mxGeometry x="170" y="130" width="120" height="60" as="geometry" />
        </mxCell>
        <mxCell id="UxfmCiFL-Ms4z8eQPeO1-6" value="participient&#39;s_name" style="ellipse;whiteSpace=wrap;html=1;" vertex="1" parent="1">
          <mxGeometry y="120" width="120" height="80" as="geometry" />
        </mxCell>
        <mxCell id="UxfmCiFL-Ms4z8eQPeO1-7" value="name" style="ellipse;whiteSpace=wrap;html=1;" vertex="1" parent="1">
          <mxGeometry x="10" y="10" width="120" height="80" as="geometry" />
        </mxCell>
        <mxCell id="UxfmCiFL-Ms4z8eQPeO1-8" value="" style="endArrow=none;html=1;rounded=0;entryX=1;entryY=1;entryDx=0;entryDy=0;exitX=0;exitY=0;exitDx=0;exitDy=0;" edge="1" parent="1" source="UxfmCiFL-Ms4z8eQPeO1-3" target="UxfmCiFL-Ms4z8eQPeO1-7">
          <mxGeometry width="50" height="50" relative="1" as="geometry">
            <mxPoint x="120" y="130" as="sourcePoint" />
            <mxPoint x="170" y="80" as="targetPoint" />
          </mxGeometry>
        </mxCell>
        <mxCell id="UxfmCiFL-Ms4z8eQPeO1-9" value="basic_information" style="ellipse;whiteSpace=wrap;html=1;" vertex="1" parent="1">
          <mxGeometry x="305" width="120" height="80" as="geometry" />
        </mxCell>
        <mxCell id="UxfmCiFL-Ms4z8eQPeO1-10" value="" style="endArrow=none;html=1;rounded=0;" edge="1" parent="1">
          <mxGeometry width="50" height="50" relative="1" as="geometry">
            <mxPoint x="290" y="130" as="sourcePoint" />
            <mxPoint x="340" y="80" as="targetPoint" />
          </mxGeometry>
        </mxCell>
        <mxCell id="UxfmCiFL-Ms4z8eQPeO1-12" value="participiens" style="ellipse;shape=doubleEllipse;margin=3;whiteSpace=wrap;html=1;align=center;" vertex="1" parent="1">
          <mxGeometry x="10" y="260" width="100" height="40" as="geometry" />
        </mxCell>
        <mxCell id="UxfmCiFL-Ms4z8eQPeO1-13" value="" style="endArrow=none;html=1;rounded=0;entryX=0;entryY=1;entryDx=0;entryDy=0;" edge="1" parent="1" target="UxfmCiFL-Ms4z8eQPeO1-3">
          <mxGeometry width="50" height="50" relative="1" as="geometry">
            <mxPoint x="60" y="260" as="sourcePoint" />
            <mxPoint x="110" y="210" as="targetPoint" />
          </mxGeometry>
        </mxCell>
        <mxCell id="UxfmCiFL-Ms4z8eQPeO1-14" value="" style="endArrow=none;html=1;rounded=0;entryX=0;entryY=0.5;entryDx=0;entryDy=0;" edge="1" parent="1" target="UxfmCiFL-Ms4z8eQPeO1-2">
          <mxGeometry width="50" height="50" relative="1" as="geometry">
            <mxPoint x="90" y="480" as="sourcePoint" />
            <mxPoint x="330" y="350" as="targetPoint" />
          </mxGeometry>
        </mxCell>
        <mxCell id="UxfmCiFL-Ms4z8eQPeO1-18" value="" style="endArrow=none;html=1;rounded=0;exitX=1;exitY=1;exitDx=0;exitDy=0;entryX=0;entryY=0.5;entryDx=0;entryDy=0;" edge="1" parent="1" source="UxfmCiFL-Ms4z8eQPeO1-3" target="UxfmCiFL-Ms4z8eQPeO1-19">
          <mxGeometry width="50" height="50" relative="1" as="geometry">
            <mxPoint x="280" y="400" as="sourcePoint" />
            <mxPoint x="400" y="330" as="targetPoint" />
          </mxGeometry>
        </mxCell>
        <mxCell id="UxfmCiFL-Ms4z8eQPeO1-19" value="rate" style="rhombus;whiteSpace=wrap;html=1;" vertex="1" parent="1">
          <mxGeometry x="385" y="300" width="80" height="80" as="geometry" />
        </mxCell>
        <mxCell id="UxfmCiFL-Ms4z8eQPeO1-20" value="" style="endArrow=none;html=1;rounded=0;entryX=1;entryY=0.5;entryDx=0;entryDy=0;exitX=0;exitY=0.5;exitDx=0;exitDy=0;" edge="1" parent="1" source="UxfmCiFL-Ms4z8eQPeO1-21" target="UxfmCiFL-Ms4z8eQPeO1-19">
          <mxGeometry width="50" height="50" relative="1" as="geometry">
            <mxPoint x="570" y="430" as="sourcePoint" />
            <mxPoint x="330" y="350" as="targetPoint" />
          </mxGeometry>
        </mxCell>
        <mxCell id="UxfmCiFL-Ms4z8eQPeO1-21" value="user" style="rounded=0;whiteSpace=wrap;html=1;" vertex="1" parent="1">
          <mxGeometry x="650" y="460" width="120" height="60" as="geometry" />
        </mxCell>
        <mxCell id="UxfmCiFL-Ms4z8eQPeO1-22" value="password" style="ellipse;whiteSpace=wrap;html=1;" vertex="1" parent="1">
          <mxGeometry x="600" y="590" width="120" height="80" as="geometry" />
        </mxCell>
        <mxCell id="UxfmCiFL-Ms4z8eQPeO1-24" value="user_id" style="ellipse;whiteSpace=wrap;html=1;" vertex="1" parent="1">
          <mxGeometry x="850" y="450" width="120" height="80" as="geometry" />
        </mxCell>
        <mxCell id="UxfmCiFL-Ms4z8eQPeO1-25" value="age" style="ellipse;whiteSpace=wrap;html=1;align=center;dashed=1;" vertex="1" parent="1">
          <mxGeometry x="860" y="360" width="100" height="40" as="geometry" />
        </mxCell>
        <mxCell id="UxfmCiFL-Ms4z8eQPeO1-26" value="" style="endArrow=none;html=1;rounded=0;entryX=0.105;entryY=1.057;entryDx=0;entryDy=0;exitX=0.5;exitY=0;exitDx=0;exitDy=0;entryPerimeter=0;" edge="1" parent="1" source="UxfmCiFL-Ms4z8eQPeO1-22" target="UxfmCiFL-Ms4z8eQPeO1-21">
          <mxGeometry width="50" height="50" relative="1" as="geometry">
            <mxPoint x="280" y="400" as="sourcePoint" />
            <mxPoint x="330" y="350" as="targetPoint" />
          </mxGeometry>
        </mxCell>
        <mxCell id="UxfmCiFL-Ms4z8eQPeO1-27" value="" style="endArrow=none;html=1;rounded=0;entryX=0.75;entryY=1;entryDx=0;entryDy=0;exitX=0.257;exitY=0.018;exitDx=0;exitDy=0;exitPerimeter=0;" edge="1" parent="1" target="UxfmCiFL-Ms4z8eQPeO1-21">
          <mxGeometry width="50" height="50" relative="1" as="geometry">
            <mxPoint x="800.8399999999997" y="571.44" as="sourcePoint" />
            <mxPoint x="330" y="350" as="targetPoint" />
          </mxGeometry>
        </mxCell>
        <mxCell id="UxfmCiFL-Ms4z8eQPeO1-28" value="" style="endArrow=none;html=1;rounded=0;entryX=0;entryY=0.5;entryDx=0;entryDy=0;exitX=1;exitY=0.5;exitDx=0;exitDy=0;" edge="1" parent="1" source="UxfmCiFL-Ms4z8eQPeO1-21" target="UxfmCiFL-Ms4z8eQPeO1-24">
          <mxGeometry width="50" height="50" relative="1" as="geometry">
            <mxPoint x="780" y="500" as="sourcePoint" />
            <mxPoint x="830" y="450" as="targetPoint" />
          </mxGeometry>
        </mxCell>
        <mxCell id="UxfmCiFL-Ms4z8eQPeO1-29" value="" style="endArrow=none;html=1;rounded=0;exitX=1;exitY=0;exitDx=0;exitDy=0;entryX=0;entryY=0.5;entryDx=0;entryDy=0;" edge="1" parent="1" source="UxfmCiFL-Ms4z8eQPeO1-21" target="UxfmCiFL-Ms4z8eQPeO1-25">
          <mxGeometry width="50" height="50" relative="1" as="geometry">
            <mxPoint x="780" y="460" as="sourcePoint" />
            <mxPoint x="830" y="410" as="targetPoint" />
          </mxGeometry>
        </mxCell>
        <mxCell id="UxfmCiFL-Ms4z8eQPeO1-31" value="reality_show_id" style="ellipse;whiteSpace=wrap;html=1;align=center;fontStyle=4;" vertex="1" parent="1">
          <mxGeometry x="170" y="40" width="100" height="40" as="geometry" />
        </mxCell>
        <mxCell id="UxfmCiFL-Ms4z8eQPeO1-32" value="tv_channel_id" style="ellipse;whiteSpace=wrap;html=1;align=center;fontStyle=4;" vertex="1" parent="1">
          <mxGeometry x="50" y="570" width="100" height="40" as="geometry" />
        </mxCell>
        <mxCell id="UxfmCiFL-Ms4z8eQPeO1-34" value="producer_id" style="ellipse;whiteSpace=wrap;html=1;align=center;fontStyle=4;" vertex="1" parent="1">
          <mxGeometry x="650" y="40" width="100" height="40" as="geometry" />
        </mxCell>
        <mxCell id="UxfmCiFL-Ms4z8eQPeO1-35" value="user_id" style="ellipse;whiteSpace=wrap;html=1;align=center;fontStyle=4;" vertex="1" parent="1">
          <mxGeometry x="770" y="570" width="100" height="40" as="geometry" />
        </mxCell>
        <mxCell id="UxfmCiFL-Ms4z8eQPeO1-36" value="M" style="text;html=1;align=center;verticalAlign=middle;resizable=0;points=[];autosize=1;strokeColor=none;fillColor=none;" vertex="1" parent="1">
          <mxGeometry x="295" y="138" width="30" height="30" as="geometry" />
        </mxCell>
        <mxCell id="UxfmCiFL-Ms4z8eQPeO1-39" value="1" style="text;html=1;align=center;verticalAlign=middle;resizable=0;points=[];autosize=1;strokeColor=none;fillColor=none;" vertex="1" parent="1">
          <mxGeometry x="600" y="130" width="30" height="30" as="geometry" />
        </mxCell>
        <mxCell id="UxfmCiFL-Ms4z8eQPeO1-40" value="1" style="text;html=1;align=center;verticalAlign=middle;resizable=0;points=[];autosize=1;strokeColor=none;fillColor=none;" vertex="1" parent="1">
          <mxGeometry x="295" y="178" width="30" height="30" as="geometry" />
        </mxCell>
        <mxCell id="UxfmCiFL-Ms4z8eQPeO1-41" value="M" style="text;html=1;align=center;verticalAlign=middle;resizable=0;points=[];autosize=1;strokeColor=none;fillColor=none;" vertex="1" parent="1">
          <mxGeometry x="615" y="448" width="30" height="30" as="geometry" />
        </mxCell>
        <mxCell id="UxfmCiFL-Ms4z8eQPeO1-42" value="M" style="text;html=1;align=center;verticalAlign=middle;resizable=0;points=[];autosize=1;strokeColor=none;fillColor=none;" vertex="1" parent="1">
          <mxGeometry x="220" y="190" width="30" height="30" as="geometry" />
        </mxCell>
        <mxCell id="UxfmCiFL-Ms4z8eQPeO1-43" value="1" style="text;html=1;align=center;verticalAlign=middle;resizable=0;points=[];autosize=1;strokeColor=none;fillColor=none;" vertex="1" parent="1">
          <mxGeometry x="225" y="418" width="30" height="30" as="geometry" />
        </mxCell>
      </root>
    </mxGraphModel>
  </diagram>
</mxfile>
